%TF.GenerationSoftware,KiCad,Pcbnew,10.0.4*%
%TF.CreationDate,2026-07-21T02:13:48+01:00*%
%TF.ProjectId,Turret_PCB_def,54757272-6574-45f5-9043-425f6465662e,rev?*%
%TF.SameCoordinates,Original*%
%TF.FileFunction,Soldermask,Bot*%
%TF.FilePolarity,Negative*%
%FSLAX46Y46*%
G04 Gerber Fmt 4.6, Leading zero omitted, Abs format (unit mm)*
G04 Created by KiCad (PCBNEW 10.0.4) date 2026-07-21 02:13:48*
%MOMM*%
%LPD*%
G01*
G04 APERTURE LIST*
%ADD10R,1.700000X1.700000*%
%ADD11O,1.700000X1.700000*%
%ADD12C,1.700000*%
%ADD13R,1.800000X1.800000*%
%ADD14C,1.800000*%
%ADD15C,1.600000*%
%ADD16C,3.200000*%
G04 APERTURE END LIST*
D10*
%TO.C,J1*%
X127940000Y-97460000D03*
D11*
X130480000Y-97460000D03*
X133020000Y-97460000D03*
X135560000Y-97460000D03*
X138100000Y-97460000D03*
X140640000Y-97460000D03*
X143180000Y-97460000D03*
X145720000Y-97460000D03*
%TD*%
D10*
%TO.C,J3*%
X150800000Y-97460000D03*
D11*
X153340000Y-97460000D03*
X155880000Y-97460000D03*
X158420000Y-97460000D03*
X160960000Y-97460000D03*
X163500000Y-97460000D03*
%TD*%
D10*
%TO.C,J2*%
X118796000Y-49200000D03*
D11*
X121336000Y-49200000D03*
X123876000Y-49200000D03*
X126416000Y-49200000D03*
X128956000Y-49200000D03*
X131496000Y-49200000D03*
X134036000Y-49200000D03*
X136576000Y-49200000D03*
X139116000Y-49200000D03*
X141656000Y-49200000D03*
%TD*%
D10*
%TO.C,J4*%
X145720000Y-49200000D03*
D11*
X148260000Y-49200000D03*
X150800000Y-49200000D03*
X153340000Y-49200000D03*
X155880000Y-49200000D03*
X158420000Y-49200000D03*
X160960000Y-49200000D03*
X163500000Y-49200000D03*
%TD*%
D10*
%TO.C,M1*%
X135460000Y-62000000D03*
D12*
X138000000Y-62000000D03*
X140540000Y-62000000D03*
%TD*%
D13*
%TO.C,D1*%
X159130000Y-69540000D03*
D14*
X159130000Y-67000000D03*
%TD*%
D13*
%TO.C,D3*%
X146420000Y-69540000D03*
D14*
X146420000Y-67000000D03*
%TD*%
D15*
%TO.C,R3*%
X146420000Y-63750000D03*
X146420000Y-56130000D03*
%TD*%
D16*
%TO.C,MH1*%
X115240000Y-49200000D03*
%TD*%
D15*
%TO.C,R1*%
X158920000Y-63750000D03*
X158920000Y-56130000D03*
%TD*%
D13*
%TO.C,D2*%
X152500000Y-69540000D03*
D14*
X152500000Y-67000000D03*
%TD*%
D15*
%TO.C,R2*%
X152420000Y-63750000D03*
X152420000Y-56130000D03*
%TD*%
D10*
%TO.C,M2*%
X135460000Y-66500000D03*
D12*
X138000000Y-66500000D03*
X140540000Y-66500000D03*
%TD*%
D16*
%TO.C,MH2*%
X113970000Y-97460000D03*
%TD*%
%TO.C,MH3*%
X166040000Y-64440000D03*
%TD*%
%TO.C,MH4*%
X166040000Y-92380000D03*
%TD*%
M02*
