%TF.GenerationSoftware,KiCad,Pcbnew,10.0.4*%
%TF.CreationDate,2026-07-21T02:13:48+01:00*%
%TF.ProjectId,Turret_PCB_def,54757272-6574-45f5-9043-425f6465662e,rev?*%
%TF.SameCoordinates,Original*%
%TF.FileFunction,Copper,L1,Top*%
%TF.FilePolarity,Positive*%
%FSLAX46Y46*%
G04 Gerber Fmt 4.6, Leading zero omitted, Abs format (unit mm)*
G04 Created by KiCad (PCBNEW 10.0.4) date 2026-07-21 02:13:48*
%MOMM*%
%LPD*%
G01*
G04 APERTURE LIST*
%TA.AperFunction,ComponentPad*%
%ADD10R,1.700000X1.700000*%
%TD*%
%TA.AperFunction,ComponentPad*%
%ADD11O,1.700000X1.700000*%
%TD*%
%TA.AperFunction,ComponentPad*%
%ADD12C,1.700000*%
%TD*%
%TA.AperFunction,ComponentPad*%
%ADD13R,1.800000X1.800000*%
%TD*%
%TA.AperFunction,ComponentPad*%
%ADD14C,1.800000*%
%TD*%
%TA.AperFunction,ComponentPad*%
%ADD15C,1.600000*%
%TD*%
%TA.AperFunction,Conductor*%
%ADD16C,0.250000*%
%TD*%
%TA.AperFunction,Conductor*%
%ADD17C,1.000000*%
%TD*%
%TA.AperFunction,Conductor*%
%ADD18C,0.500000*%
%TD*%
G04 APERTURE END LIST*
D10*
%TO.P,J1,1,Pin_1_1*%
%TO.N,unconnected-(J1-Pin_1-Pad1)*%
X127940000Y-97460000D03*
D11*
%TO.P,J1,2,Pin_2_2*%
%TO.N,unconnected-(J1-Pin_2-Pad2)*%
X130480000Y-97460000D03*
%TO.P,J1,3,Pin_3_3*%
%TO.N,unconnected-(J1-Pin_3-Pad3)*%
X133020000Y-97460000D03*
%TO.P,J1,4,Pin_4_4*%
%TO.N,+3V3*%
X135560000Y-97460000D03*
%TO.P,J1,5,Pin_5_5*%
%TO.N,+5V*%
X138100000Y-97460000D03*
%TO.P,J1,6,Pin_6_6*%
%TO.N,GND*%
X140640000Y-97460000D03*
%TO.P,J1,7,Pin_7_7*%
X143180000Y-97460000D03*
%TO.P,J1,8,Pin_8_8*%
%TO.N,unconnected-(J1-Pin_8-Pad8)*%
X145720000Y-97460000D03*
%TD*%
D10*
%TO.P,J3,1,Pin_1_1*%
%TO.N,/A0*%
X150800000Y-97460000D03*
D11*
%TO.P,J3,2,Pin_2_2*%
%TO.N,/A1*%
X153340000Y-97460000D03*
%TO.P,J3,3,Pin_3_3*%
%TO.N,/A2*%
X155880000Y-97460000D03*
%TO.P,J3,4,Pin_4_4*%
%TO.N,/A3*%
X158420000Y-97460000D03*
%TO.P,J3,5,Pin_5_5*%
%TO.N,unconnected-(J3-Pin_5-Pad5)*%
X160960000Y-97460000D03*
%TO.P,J3,6,Pin_6_6*%
%TO.N,unconnected-(J3-Pin_6-Pad6)*%
X163500000Y-97460000D03*
%TD*%
D10*
%TO.P,J2,1,Pin_1_1*%
%TO.N,/SCL{slash}A5*%
X118796000Y-49200000D03*
D11*
%TO.P,J2,2,Pin_2_2*%
%TO.N,/SDA{slash}A4*%
X121336000Y-49200000D03*
%TO.P,J2,3,Pin_3_3*%
%TO.N,/AREF*%
X123876000Y-49200000D03*
%TO.P,J2,4,Pin_4_4*%
%TO.N,unconnected-(J2-Pin_4-Pad4)*%
X126416000Y-49200000D03*
%TO.P,J2,5,Pin_5_5*%
%TO.N,/13*%
X128956000Y-49200000D03*
%TO.P,J2,6,Pin_6_6*%
%TO.N,/12*%
X131496000Y-49200000D03*
%TO.P,J2,7,Pin_7_7*%
%TO.N,/\u002A11*%
X134036000Y-49200000D03*
%TO.P,J2,8,Pin_8_8*%
%TO.N,/\u002A10*%
X136576000Y-49200000D03*
%TO.P,J2,9,Pin_9_9*%
%TO.N,/\u002A9*%
X139116000Y-49200000D03*
%TO.P,J2,10,Pin_10_10*%
%TO.N,/8*%
X141656000Y-49200000D03*
%TD*%
D10*
%TO.P,J4,1,Pin_1_1*%
%TO.N,/7*%
X145720000Y-49200000D03*
D11*
%TO.P,J4,2,Pin_2_2*%
%TO.N,/\u002A6*%
X148260000Y-49200000D03*
%TO.P,J4,3,Pin_3_3*%
%TO.N,/\u002A5*%
X150800000Y-49200000D03*
%TO.P,J4,4,Pin_4_4*%
%TO.N,/4*%
X153340000Y-49200000D03*
%TO.P,J4,5,Pin_5_5*%
%TO.N,/\u002A3*%
X155880000Y-49200000D03*
%TO.P,J4,6,Pin_6_6*%
%TO.N,/2*%
X158420000Y-49200000D03*
%TO.P,J4,7,Pin_7_7*%
%TO.N,/TX{slash}1*%
X160960000Y-49200000D03*
%TO.P,J4,8,Pin_8_8*%
%TO.N,/RX{slash}0*%
X163500000Y-49200000D03*
%TD*%
D10*
%TO.P,M1,1,PWM_1*%
%TO.N,/8*%
X135460000Y-62000000D03*
D12*
%TO.P,M1,2,+_2*%
%TO.N,+5V*%
X138000000Y-62000000D03*
%TO.P,M1,3,-_3*%
%TO.N,GND*%
X140540000Y-62000000D03*
%TD*%
D13*
%TO.P,D1,1,K_1*%
%TO.N,GND*%
X159130000Y-69540000D03*
D14*
%TO.P,D1,2,A_2*%
%TO.N,Net-(D1-A)*%
X159130000Y-67000000D03*
%TD*%
D13*
%TO.P,D3,1,K_1*%
%TO.N,GND*%
X146420000Y-69540000D03*
D14*
%TO.P,D3,2,A_2*%
%TO.N,Net-(D3-A)*%
X146420000Y-67000000D03*
%TD*%
D15*
%TO.P,R3,1*%
%TO.N,Net-(D3-A)*%
X146420000Y-63750000D03*
%TO.P,R3,2*%
%TO.N,/4*%
X146420000Y-56130000D03*
%TD*%
%TO.P,R1,1*%
%TO.N,Net-(D1-A)*%
X158920000Y-63750000D03*
%TO.P,R1,2*%
%TO.N,/2*%
X158920000Y-56130000D03*
%TD*%
D13*
%TO.P,D2,1,K_1*%
%TO.N,GND*%
X152500000Y-69540000D03*
D14*
%TO.P,D2,2,A_2*%
%TO.N,Net-(D2-A)*%
X152500000Y-67000000D03*
%TD*%
D15*
%TO.P,R2,1*%
%TO.N,Net-(D2-A)*%
X152420000Y-63750000D03*
%TO.P,R2,2*%
%TO.N,/\u002A3*%
X152420000Y-56130000D03*
%TD*%
D10*
%TO.P,M2,1,PWM_1*%
%TO.N,/\u002A9*%
X135460000Y-66500000D03*
D12*
%TO.P,M2,2,+_2*%
%TO.N,+5V*%
X138000000Y-66500000D03*
%TO.P,M2,3,-_3*%
%TO.N,GND*%
X140540000Y-66500000D03*
%TD*%
%TO.N,+5V*%
D16*
X138100000Y-66600000D02*
X138000000Y-66500000D01*
D17*
X138100000Y-97460000D02*
X138100000Y-66600000D01*
X138000000Y-66500000D02*
X138000000Y-62000000D01*
%TO.N,GND*%
X146420000Y-69540000D02*
X152500000Y-69540000D01*
X140640000Y-73860000D02*
X144960000Y-69540000D01*
X140640000Y-90000000D02*
X143000000Y-90000000D01*
X143180000Y-90180000D02*
X143180000Y-97460000D01*
X143000000Y-90000000D02*
X143180000Y-90180000D01*
X140640000Y-90000000D02*
X140640000Y-73860000D01*
D16*
X140640000Y-73860000D02*
X140540000Y-73760000D01*
D17*
X140540000Y-73760000D02*
X140540000Y-66500000D01*
X152500000Y-69540000D02*
X159130000Y-69540000D01*
X144960000Y-69540000D02*
X146420000Y-69540000D01*
X140540000Y-66500000D02*
X140540000Y-62000000D01*
X140640000Y-97460000D02*
X140640000Y-90000000D01*
%TO.N,/\u002A9*%
D18*
X135460000Y-66500000D02*
X133500000Y-66500000D01*
X139116000Y-52884000D02*
X139116000Y-49200000D01*
X138500000Y-53500000D02*
X139116000Y-52884000D01*
X133000000Y-66000000D02*
X133000000Y-57000000D01*
X133500000Y-66500000D02*
X133000000Y-66000000D01*
X136500000Y-53500000D02*
X138500000Y-53500000D01*
X133000000Y-57000000D02*
X136500000Y-53500000D01*
%TO.N,/8*%
X141656000Y-54844000D02*
X141656000Y-49200000D01*
X135460000Y-57540000D02*
X137500000Y-55500000D01*
X135460000Y-62000000D02*
X135460000Y-57540000D01*
X137500000Y-55500000D02*
X141000000Y-55500000D01*
X141000000Y-55500000D02*
X141656000Y-54844000D01*
%TO.N,/4*%
D16*
X153340000Y-49210000D02*
X153340000Y-49200000D01*
D17*
X146420000Y-56130000D02*
X153340000Y-49210000D01*
%TO.N,/\u002A3*%
X152420000Y-52660000D02*
X155880000Y-49200000D01*
X152420000Y-56130000D02*
X152420000Y-52660000D01*
%TO.N,/2*%
X158920000Y-56130000D02*
X158920000Y-49700000D01*
D16*
X158920000Y-49700000D02*
X158420000Y-49200000D01*
%TO.N,Net-(D1-A)*%
D17*
X158920000Y-63750000D02*
X158920000Y-66790000D01*
D16*
X158920000Y-66790000D02*
X159130000Y-67000000D01*
%TO.N,Net-(D3-A)*%
D17*
X146420000Y-63750000D02*
X146420000Y-67000000D01*
%TO.N,Net-(D2-A)*%
X152420000Y-63750000D02*
X152420000Y-66920000D01*
D16*
X152420000Y-66920000D02*
X152500000Y-67000000D01*
%TD*%
M02*
