M48
; DRILL file KiCad 10.0.4 date 2026-07-21T02:14:42
; FORMAT={-:-/ absolute / metric / decimal}
; #@! TF.CreationDate,2026-07-21T02:14:42+01:00
; #@! TF.GenerationSoftware,Kicad,Pcbnew,10.0.4
; #@! TF.FileFunction,Plated,1,2,PTH
FMAT,2
METRIC
; #@! TA.AperFunction,Plated,PTH,ComponentDrill
T1C0.800
; #@! TA.AperFunction,Plated,PTH,ComponentDrill
T2C0.900
; #@! TA.AperFunction,Plated,PTH,ComponentDrill
T3C1.000
%
G90
G05
T1
X146.42Y-56.13
X146.42Y-63.75
X152.42Y-56.13
X152.42Y-63.75
X158.92Y-56.13
X158.92Y-63.75
T2
X146.42Y-67.0
X146.42Y-69.54
X152.5Y-67.0
X152.5Y-69.54
X159.13Y-67.0
X159.13Y-69.54
T3
X118.796Y-49.2
X121.336Y-49.2
X123.876Y-49.2
X126.416Y-49.2
X127.94Y-97.46
X128.956Y-49.2
X130.48Y-97.46
X131.496Y-49.2
X133.02Y-97.46
X134.036Y-49.2
X135.46Y-62.0
X135.46Y-66.5
X135.56Y-97.46
X136.576Y-49.2
X138.0Y-62.0
X138.0Y-66.5
X138.1Y-97.46
X139.116Y-49.2
X140.54Y-62.0
X140.54Y-66.5
X140.64Y-97.46
X141.656Y-49.2
X143.18Y-97.46
X145.72Y-49.2
X145.72Y-97.46
X148.26Y-49.2
X150.8Y-49.2
X150.8Y-97.46
X153.34Y-49.2
X153.34Y-97.46
X155.88Y-49.2
X155.88Y-97.46
X158.42Y-49.2
X158.42Y-97.46
X160.96Y-49.2
X160.96Y-97.46
X163.5Y-49.2
X163.5Y-97.46
M30
